<svg xmlns="http://www.w3.org/2000/svg" xmlns:xlink="http://www.w3.org/1999/xlink" contentStyleType="text/css" data-diagram-type="CLASS" height="709px" preserveAspectRatio="none" style="width:1544px;height:709px;background:#FFFFFF;" version="1.1" viewBox="0 0 1544 709" width="1544px" zoomAndPan="magnify"><title>Aeronet APIs</title><defs/><g><g class="title" data-source-line="1"><text fill="#000000" font-family="sans-serif" font-size="14" font-weight="bold" lengthAdjust="spacing" textLength="102.5186" x="714.0026" y="22.9951">Aeronet APIs</text></g><!--cluster pygeofilter--><g class="cluster" data-entity="pygeofilter" data-source-line="4" data-uid="ent0004" id="cluster_pygeofilter"><path d="M837.19,43.2969 L925.2525,43.2969 A3.75,3.75 0 0 1 927.7525,45.7969 L934.7525,65.5938 L1058.19,65.5938 A2.5,2.5 0 0 1 1060.69,68.0938 L1060.69,273.7969 A2.5,2.5 0 0 1 1058.19,276.2969 L837.19,276.2969 A2.5,2.5 0 0 1 834.69,273.7969 L834.69,45.7969 A2.5,2.5 0 0 1 837.19,43.2969" fill="none" style="stroke:#000000;stroke-width:1.5;"/><line style="stroke:#000000;stroke-width:1.5;" x1="834.69" x2="934.7525" y1="65.5938" y2="65.5938"/><text fill="#000000" font-family="sans-serif" font-size="14" font-weight="bold" lengthAdjust="spacing" textLength="87.0625" x="838.69" y="58.292">pygeofilter</text></g><!--cluster backends--><g class="cluster" data-entity="backends" data-source-line="4" data-uid="ent0005" id="cluster_backends"><path d="M861.19,86.2969 L937.0845,86.2969 A3.75,3.75 0 0 1 939.5845,88.7969 L946.5845,108.5938 L1034.19,108.5938 A2.5,2.5 0 0 1 1036.69,111.0938 L1036.69,249.7969 A2.5,2.5 0 0 1 1034.19,252.2969 L861.19,252.2969 A2.5,2.5 0 0 1 858.69,249.7969 L858.69,88.7969 A2.5,2.5 0 0 1 861.19,86.2969" fill="none" style="stroke:#000000;stroke-width:1.5;"/><line style="stroke:#000000;stroke-width:1.5;" x1="858.69" x2="946.5845" y1="108.5938" y2="108.5938"/><text fill="#000000" font-family="sans-serif" font-size="14" font-weight="bold" lengthAdjust="spacing" textLength="74.8945" x="862.69" y="101.292">backends</text></g><!--cluster evaluator--><g class="cluster" data-entity="evaluator" data-source-line="3" data-uid="ent0002" id="cluster_evaluator"><path d="M885.19,129.2969 L961.6861,129.2969 A3.75,3.75 0 0 1 964.1861,131.7969 L971.1861,151.5938 L1010.19,151.5938 A2.5,2.5 0 0 1 1012.69,154.0938 L1012.69,225.7969 A2.5,2.5 0 0 1 1010.19,228.2969 L885.19,228.2969 A2.5,2.5 0 0 1 882.69,225.7969 L882.69,131.7969 A2.5,2.5 0 0 1 885.19,129.2969" fill="none" style="stroke:#000000;stroke-width:1.5;"/><line style="stroke:#000000;stroke-width:1.5;" x1="882.69" x2="971.1861" y1="151.5938" y2="151.5938"/><text fill="#000000" font-family="sans-serif" font-size="14" font-weight="bold" lengthAdjust="spacing" textLength="75.4961" x="886.69" y="144.292">evaluator</text></g><!--class Evaluator--><g class="entity" data-entity="Evaluator" data-source-line="4" data-uid="ent0003" id="entity_Evaluator"><rect fill="#F1F1F1" height="48" rx="2.5" ry="2.5" style="stroke:#181818;stroke-width:0.5;" width="98.8623" x="898.26" y="164.2969"/><ellipse cx="913.26" cy="180.2969" fill="#ADD1B2" rx="11" ry="11" style="stroke:#181818;stroke-width:1;"/><path d="M916.2288,185.9375 Q915.6506,186.2344 915.01,186.375 Q914.3694,186.5313 913.6663,186.5313 Q911.1663,186.5313 909.8381,184.8906 Q908.5256,183.2344 908.5256,180.1094 Q908.5256,176.9844 909.8381,175.3281 Q911.1663,173.6719 913.6663,173.6719 Q914.3694,173.6719 915.01,173.8281 Q915.6663,173.9844 916.2288,174.2813 L916.2288,177 Q915.6038,176.4219 915.01,176.1563 Q914.4163,175.875 913.7913,175.875 Q912.4475,175.875 911.76,176.9531 Q911.0725,178.0156 911.0725,180.1094 Q911.0725,182.2031 911.76,183.2813 Q912.4475,184.3438 913.7913,184.3438 Q914.4163,184.3438 915.01,184.0781 Q915.6038,183.7969 916.2288,183.2188 L916.2288,185.9375 Z " fill="#000000"/><text fill="#000000" font-family="sans-serif" font-size="14" lengthAdjust="spacing" textLength="66.8623" x="927.26" y="185.1436">Evaluator</text><line style="stroke:#181818;stroke-width:0.5;" x1="899.26" x2="996.1223" y1="196.2969" y2="196.2969"/><line style="stroke:#181818;stroke-width:0.5;" x1="899.26" x2="996.1223" y1="204.2969" y2="204.2969"/></g><!--class AeronetEvaluator--><g class="entity" data-entity="AeronetEvaluator" data-source-line="7" data-uid="ent0006" id="entity_AeronetEvaluator"><rect fill="#F1F1F1" height="64.2969" rx="2.5" ry="2.5" style="stroke:#181818;stroke-width:0.5;" width="604.3135" x="645.53" y="300.4469"/><ellipse cx="882.2619" cy="316.4469" fill="#ADD1B2" rx="11" ry="11" style="stroke:#181818;stroke-width:1;"/><path d="M885.2307,322.0875 Q884.6526,322.3844 884.0119,322.525 Q883.3713,322.6813 882.6682,322.6813 Q880.1682,322.6813 878.8401,321.0406 Q877.5276,319.3844 877.5276,316.2594 Q877.5276,313.1344 878.8401,311.4781 Q880.1682,309.8219 882.6682,309.8219 Q883.3713,309.8219 884.0119,309.9781 Q884.6682,310.1344 885.2307,310.4313 L885.2307,313.15 Q884.6057,312.5719 884.0119,312.3063 Q883.4182,312.025 882.7932,312.025 Q881.4494,312.025 880.7619,313.1031 Q880.0744,314.1656 880.0744,316.2594 Q880.0744,318.3531 880.7619,319.4313 Q881.4494,320.4938 882.7932,320.4938 Q883.4182,320.4938 884.0119,320.2281 Q884.6057,319.9469 885.2307,319.3688 L885.2307,322.0875 Z " fill="#000000"/><text fill="#000000" font-family="sans-serif" font-size="14" lengthAdjust="spacing" textLength="122.3496" x="902.7619" y="321.2936">AeronetEvaluator</text><line style="stroke:#181818;stroke-width:0.5;" x1="646.53" x2="1248.8435" y1="332.4469" y2="332.4469"/><line style="stroke:#181818;stroke-width:0.5;" x1="646.53" x2="1248.8435" y1="340.4469" y2="340.4469"/><ellipse cx="656.53" cy="354.0953" fill="#84BE84" rx="3" ry="3" style="stroke:#038048;stroke-width:1;"/><text fill="#000000" font-family="sans-serif" font-size="14" lengthAdjust="spacing" textLength="578.3135" x="665.53" y="357.442">to_aeronet_api(cql2_filter: str | Mapping[str, Any]) -&gt; Tuple[str, Mapping[str, Any]]</text></g><!--class FilterLang--><g class="entity" data-entity="FilterLang" data-source-line="13" data-uid="ent0009" id="entity_FilterLang"><rect fill="#F1F1F1" height="80.5938" rx="2.5" ry="2.5" style="stroke:#181818;stroke-width:0.5;" width="101.8291" x="381.77" y="292.2969"/><ellipse cx="396.77" cy="308.2969" fill="#EB937F" rx="11" ry="11" style="stroke:#181818;stroke-width:1;"/><path d="M400.8794,314.2969 L393.1606,314.2969 L393.1606,301.9062 L400.8794,301.9062 L400.8794,304.0625 L395.6138,304.0625 L395.6138,306.7344 L400.3794,306.7344 L400.3794,308.8906 L395.6138,308.8906 L395.6138,312.1406 L400.8794,312.1406 L400.8794,314.2969 Z " fill="#000000"/><text fill="#000000" font-family="sans-serif" font-size="14" lengthAdjust="spacing" textLength="69.8291" x="410.77" y="313.1436">FilterLang</text><line style="stroke:#181818;stroke-width:0.5;" x1="382.77" x2="482.5991" y1="324.2969" y2="324.2969"/><text fill="#000000" font-family="sans-serif" font-size="14" lengthAdjust="spacing" textLength="79.0098" x="387.77" y="341.292">CQL2_JSON</text><text fill="#000000" font-family="sans-serif" font-size="14" lengthAdjust="spacing" textLength="80.042" x="387.77" y="357.5889">CQL2_TEXT</text><line style="stroke:#181818;stroke-width:0.5;" x1="382.77" x2="482.5991" y1="364.8906" y2="364.8906"/></g><!--class PygeofilterAeronet--><g class="entity" data-entity="PygeofilterAeronet" data-source-line="18" data-uid="ent0010" id="entity_PygeofilterAeronet"><rect fill="#F1F1F1" height="113.1875" rx="2.5" ry="2.5" style="stroke:#181818;stroke-width:0.5;" width="1179.6738" x="357.85" y="432.8869"/><ellipse cx="874.7904" cy="448.8869" fill="#ADD1B2" rx="11" ry="11" style="stroke:#181818;stroke-width:1;"/><path d="M877.7592,454.5275 Q877.1811,454.8244 876.5404,454.965 Q875.8998,455.1213 875.1967,455.1213 Q872.6967,455.1213 871.3686,453.4806 Q870.0561,451.8244 870.0561,448.6994 Q870.0561,445.5744 871.3686,443.9181 Q872.6967,442.2619 875.1967,442.2619 Q875.8998,442.2619 876.5404,442.4181 Q877.1967,442.5744 877.7592,442.8713 L877.7592,445.59 Q877.1342,445.0119 876.5404,444.7463 Q875.9467,444.465 875.3217,444.465 Q873.9779,444.465 873.2904,445.5431 Q872.6029,446.6056 872.6029,448.6994 Q872.6029,450.7931 873.2904,451.8713 Q873.9779,452.9338 875.3217,452.9338 Q875.9467,452.9338 876.5404,452.6681 Q877.1342,452.3869 877.7592,451.8088 L877.7592,454.5275 Z " fill="#000000"/><text fill="#000000" font-family="sans-serif" font-size="14" lengthAdjust="spacing" textLength="137.293" x="895.2904" y="453.7336">pygeofilter_aeronet</text><line style="stroke:#181818;stroke-width:0.5;" x1="358.85" x2="1536.5238" y1="464.8869" y2="464.8869"/><line style="stroke:#181818;stroke-width:0.5;" x1="358.85" x2="1536.5238" y1="472.8869" y2="472.8869"/><ellipse cx="368.85" cy="486.5353" fill="#84BE84" rx="3" ry="3" style="stroke:#038048;stroke-width:1;"/><text fill="#000000" font-family="sans-serif" font-size="14" lengthAdjust="spacing" textLength="336.4375" x="377.85" y="489.882">dump_items(items: List[Item], output_file: Path)</text><ellipse cx="368.85" cy="502.8322" fill="#84BE84" rx="3" ry="3" style="stroke:#038048;stroke-width:1;"/><text fill="#000000" font-family="sans-serif" font-size="14" lengthAdjust="spacing" textLength="653.6045" x="377.85" y="506.1789">get_aeronet_stations(url: str = AERONET_API_BASE_URL, verbose: bool = False) -&gt; List[Item]</text><ellipse cx="368.85" cy="519.1291" fill="#84BE84" rx="3" ry="3" style="stroke:#038048;stroke-width:1;"/><text fill="#000000" font-family="sans-serif" font-size="14" lengthAdjust="spacing" textLength="825.4121" x="377.85" y="522.4757">query_stations_from_parquet(file_path: str, cql2_filter: str | Mapping[str, Any] | None = None) -&gt; Tuple[str, List[Item]]</text><ellipse cx="368.85" cy="535.4259" fill="#84BE84" rx="3" ry="3" style="stroke:#038048;stroke-width:1;"/><text fill="#000000" font-family="sans-serif" font-size="14" lengthAdjust="spacing" textLength="1153.6738" x="377.85" y="538.7726">aeronet_search(cql2_filter: str | Mapping[str, Any], output_dir: Path, url: str = AERONET_API_BASE_URL, dry_run: bool = False, verbose: bool = False) -&gt; Item | None</text></g><!--class QueryOutputFormat--><g class="entity" data-entity="QueryOutputFormat" data-source-line="25" data-uid="ent0011" id="entity_QueryOutputFormat"><rect fill="#F1F1F1" height="80.5938" rx="2.5" ry="2.5" style="stroke:#181818;stroke-width:0.5;" width="173.2578" x="78.06" y="449.1869"/><ellipse cx="93.06" cy="465.1869" fill="#EB937F" rx="11" ry="11" style="stroke:#181818;stroke-width:1;"/><path d="M97.1694,471.1869 L89.4506,471.1869 L89.4506,458.7963 L97.1694,458.7963 L97.1694,460.9525 L91.9038,460.9525 L91.9038,463.6244 L96.6694,463.6244 L96.6694,465.7806 L91.9038,465.7806 L91.9038,469.0306 L97.1694,469.0306 L97.1694,471.1869 Z " fill="#000000"/><text fill="#000000" font-family="sans-serif" font-size="14" lengthAdjust="spacing" textLength="141.2578" x="107.06" y="470.0336">QueryOutputFormat</text><line style="stroke:#181818;stroke-width:0.5;" x1="79.06" x2="250.3178" y1="481.1869" y2="481.1869"/><text fill="#000000" font-family="sans-serif" font-size="14" lengthAdjust="spacing" textLength="42.3076" x="84.06" y="498.182">JSONL</text><text fill="#000000" font-family="sans-serif" font-size="14" lengthAdjust="spacing" textLength="36.791" x="84.06" y="514.4789">STAC</text><line style="stroke:#181818;stroke-width:0.5;" x1="79.06" x2="250.3178" y1="521.7806" y2="521.7806"/></g><!--class Cli--><g class="entity" data-entity="Cli" data-source-line="30" data-uid="ent0012" id="entity_Cli"><rect fill="#F1F1F1" height="96.8906" rx="2.5" ry="2.5" style="stroke:#181818;stroke-width:0.5;" width="683.3779" x="7" y="606.0769"/><ellipse cx="336.7007" cy="622.0769" fill="#ADD1B2" rx="11" ry="11" style="stroke:#181818;stroke-width:1;"/><path d="M339.6694,627.7175 Q339.0913,628.0144 338.4507,628.155 Q337.8101,628.3113 337.1069,628.3113 Q334.6069,628.3113 333.2788,626.6706 Q331.9663,625.0144 331.9663,621.8894 Q331.9663,618.7644 333.2788,617.1081 Q334.6069,615.4519 337.1069,615.4519 Q337.8101,615.4519 338.4507,615.6081 Q339.1069,615.7644 339.6694,616.0613 L339.6694,618.78 Q339.0444,618.2019 338.4507,617.9363 Q337.8569,617.655 337.2319,617.655 Q335.8882,617.655 335.2007,618.7331 Q334.5132,619.7956 334.5132,621.8894 Q334.5132,623.9831 335.2007,625.0613 Q335.8882,626.1238 337.2319,626.1238 Q337.8569,626.1238 338.4507,625.8581 Q339.0444,625.5769 339.6694,624.9988 L339.6694,627.7175 Z " fill="#000000"/><text fill="#000000" font-family="sans-serif" font-size="14" lengthAdjust="spacing" textLength="15.4766" x="357.2007" y="626.9236">cli</text><line style="stroke:#181818;stroke-width:0.5;" x1="8" x2="689.3779" y1="638.0769" y2="638.0769"/><line style="stroke:#181818;stroke-width:0.5;" x1="8" x2="689.3779" y1="646.0769" y2="646.0769"/><ellipse cx="18" cy="659.7253" fill="#84BE84" rx="3" ry="3" style="stroke:#038048;stroke-width:1;"/><text fill="#000000" font-family="sans-serif" font-size="14" lengthAdjust="spacing" textLength="657.3779" x="27" y="663.072">search(url: str, filter: str, filter_lang: FilterLang, dry_run: bool, output_dir: Path, verbose: bool)</text><ellipse cx="18" cy="676.0222" fill="#84BE84" rx="3" ry="3" style="stroke:#038048;stroke-width:1;"/><text fill="#000000" font-family="sans-serif" font-size="14" lengthAdjust="spacing" textLength="387.8438" x="27" y="679.3689">dump_stations(url: str, output_file: Path, verbose: bool)</text><ellipse cx="18" cy="692.3191" fill="#84BE84" rx="3" ry="3" style="stroke:#038048;stroke-width:1;"/><text fill="#000000" font-family="sans-serif" font-size="14" lengthAdjust="spacing" textLength="634.8125" x="27" y="695.6657">query_stations(file_path: str, filter: str, filter_lang: FilterLang, format: QueryOutputFormat)</text></g><!--class Utils--><g class="entity" data-entity="Utils" data-source-line="36" data-uid="ent0013" id="entity_Utils"><rect fill="#F1F1F1" height="80.5938" rx="2.5" ry="2.5" style="stroke:#181818;stroke-width:0.5;" width="357.5225" x="746.93" y="614.2269"/><ellipse cx="906.7235" cy="630.2269" fill="#ADD1B2" rx="11" ry="11" style="stroke:#181818;stroke-width:1;"/><path d="M909.6922,635.8675 Q909.1141,636.1644 908.4735,636.305 Q907.8328,636.4613 907.1297,636.4613 Q904.6297,636.4613 903.3016,634.8206 Q901.9891,633.1644 901.9891,630.0394 Q901.9891,626.9144 903.3016,625.2581 Q904.6297,623.6019 907.1297,623.6019 Q907.8328,623.6019 908.4735,623.7581 Q909.1297,623.9144 909.6922,624.2113 L909.6922,626.93 Q909.0672,626.3519 908.4735,626.0863 Q907.8797,625.805 907.2547,625.805 Q905.911,625.805 905.2235,626.8831 Q904.536,627.9456 904.536,630.0394 Q904.536,632.1331 905.2235,633.2113 Q905.911,634.2738 907.2547,634.2738 Q907.8797,634.2738 908.4735,634.0081 Q909.0672,633.7269 909.6922,633.1488 L909.6922,635.8675 Z " fill="#000000"/><text fill="#000000" font-family="sans-serif" font-size="14" lengthAdjust="spacing" textLength="29.4355" x="927.2235" y="635.0736">utils</text><line style="stroke:#181818;stroke-width:0.5;" x1="747.93" x2="1103.4525" y1="646.2269" y2="646.2269"/><line style="stroke:#181818;stroke-width:0.5;" x1="747.93" x2="1103.4525" y1="654.2269" y2="654.2269"/><ellipse cx="757.93" cy="667.8753" fill="#84BE84" rx="3" ry="3" style="stroke:#038048;stroke-width:1;"/><text fill="#000000" font-family="sans-serif" font-size="14" lengthAdjust="spacing" textLength="331.5225" x="766.93" y="671.222">json_dump(obj: Any, pretty_print: bool = False)</text><ellipse cx="757.93" cy="684.1722" fill="#84BE84" rx="3" ry="3" style="stroke:#038048;stroke-width:1;"/><text fill="#000000" font-family="sans-serif" font-size="14" lengthAdjust="spacing" textLength="236.2773" x="766.93" y="687.5189">verbose_client(http_client: Client)</text></g><!--reverse link Evaluator to AeronetEvaluator--><g class="link" data-entity-1="Evaluator" data-entity-2="AeronetEvaluator" data-source-line="11" data-uid="lnk8" id="link_Evaluator_AeronetEvaluator"><path codeLine="11" d="M947.69,230.7969 C947.69,254.6269 947.69,273.6769 947.69,300.0569" fill="none" id="Evaluator-backto-AeronetEvaluator" style="stroke:#181818;stroke-width:1;"/><polygon fill="none" points="947.69,212.7969,941.69,230.7969,953.69,230.7969,947.69,212.7969" style="stroke:#181818;stroke-width:1;"/></g><!--reverse link FilterLang to PygeofilterAeronet--><g class="link" data-entity-1="FilterLang" data-entity-2="PygeofilterAeronet" data-source-line="41" data-uid="lnk15" id="link_FilterLang_PygeofilterAeronet"><path codeLine="41" d="M489.6957,350.7351 C554.1257,370.1151 662.53,402.7169 761.45,432.4669" fill="none" id="FilterLang-backto-PygeofilterAeronet" style="stroke:#181818;stroke-width:1;"/><polygon fill="#181818" points="483.95,349.0069,491.4164,355.4297,488.7381,350.4471,493.7207,347.7688,483.95,349.0069" style="stroke:#181818;stroke-width:1;"/></g><!--reverse link AeronetEvaluator to PygeofilterAeronet--><g class="link" data-entity-1="AeronetEvaluator" data-entity-2="PygeofilterAeronet" data-source-line="42" data-uid="lnk17" id="link_AeronetEvaluator_PygeofilterAeronet"><path codeLine="42" d="M947.69,370.9369 C947.69,390.2969 947.69,409.6969 947.69,432.4269" fill="none" id="AeronetEvaluator-backto-PygeofilterAeronet" style="stroke:#181818;stroke-width:1;"/><polygon fill="#181818" points="947.69,364.9369,943.69,373.9369,947.69,369.9369,951.69,373.9369,947.69,364.9369" style="stroke:#181818;stroke-width:1;"/></g><!--link PygeofilterAeronet to Utils--><g class="link" data-entity-1="PygeofilterAeronet" data-entity-2="Utils" data-source-line="43" data-uid="lnk18" id="link_PygeofilterAeronet_Utils"><path codeLine="43" d="M940.18,546.1369 C937.18,568.3669 934.5914,587.5206 931.8514,607.8506" fill="none" id="PygeofilterAeronet-to-Utils" style="stroke:#181818;stroke-width:1;"/><polygon fill="#181818" points="931.05,613.7969,936.2163,605.4118,931.7178,608.8417,928.288,604.3432,931.05,613.7969" style="stroke:#181818;stroke-width:1;"/></g><!--reverse link FilterLang to Cli--><g class="link" data-entity-1="FilterLang" data-entity-2="Cli" data-source-line="44" data-uid="lnk20" id="link_FilterLang_Cli"><path codeLine="44" d="M379.0506,377.1722 C362.1806,393.6722 349.61,410.1369 340.69,432.8869 C318.65,489.0969 326.76,559.6469 336.26,605.6269" fill="none" id="FilterLang-backto-Cli" style="stroke:#181818;stroke-width:1;"/><polygon fill="#181818" points="383.34,372.9769,374.109,376.4103,379.7655,376.473,379.7028,382.1295,383.34,372.9769" style="stroke:#181818;stroke-width:1;"/></g><!--reverse link QueryOutputFormat to Cli--><g class="link" data-entity-1="QueryOutputFormat" data-entity-2="Cli" data-source-line="45" data-uid="lnk22" id="link_QueryOutputFormat_Cli"><path codeLine="45" d="M213.7205,533.9262 C239.4605,556.7362 267.53,581.6069 294.72,605.6969" fill="none" id="QueryOutputFormat-backto-Cli" style="stroke:#181818;stroke-width:1;"/><polygon fill="#181818" points="209.23,529.9469,213.3129,538.9096,212.9721,533.263,218.6187,532.9222,209.23,529.9469" style="stroke:#181818;stroke-width:1;"/></g><!--reverse link PygeofilterAeronet to Cli--><g class="link" data-entity-1="PygeofilterAeronet" data-entity-2="Cli" data-source-line="46" data-uid="lnk24" id="link_PygeofilterAeronet_Cli"><path codeLine="46" d="M736.1806,548.0527 C665.4206,567.3127 592.69,587.1069 524.53,605.6569" fill="none" id="PygeofilterAeronet-backto-Cli" style="stroke:#181818;stroke-width:1;"/><polygon fill="#181818" points="741.97,546.4769,732.2354,544.981,737.1455,547.79,734.3365,552.7002,741.97,546.4769" style="stroke:#181818;stroke-width:1;"/></g><!--link Cli to Utils--><g class="link" data-entity-1="Cli" data-entity-2="Utils" data-source-line="47" data-uid="lnk25" id="link_Cli_Utils"><path codeLine="47" d="M690.72,654.5169 C709.38,654.5169 722.05,654.5169 740.71,654.5169" fill="none" id="Cli-to-Utils" style="stroke:#181818;stroke-width:1;"/><polygon fill="#181818" points="746.71,654.5169,737.71,650.5169,741.71,654.5169,737.71,658.5169,746.71,654.5169" style="stroke:#181818;stroke-width:1;"/></g><!--SRC=[ZLHFRzem5B_dKppr5BJGGu-HXfIX87LYG5igJQgGPS20EnExzdCbjEwxptOI4WZTk13xnNw_VoyWHy4WOreM326RtPieKdJrYsuPgCEMoGqNoFJjqjLOiJQtx9qAIr5g-1sj13K6yheI_OcgKjKlRvtz0YW9BUk4AXwltiGTARkdO5331_oWIl5Y- -9s2MJ5OT63_W3cLWbMrZe75XwpWzQt_Oz1YrV42hk7KS0QqsBhw0mVndVa-zDqKgxc-SzvGt_M2A-TeGPkMdxKIcw2ihNTAyAHxKqSVbCOSuClzswzI41QL1QzL9R2ZEAkvwvilGkL6mOfSbcOs6fHMl4LilnnEiddn2L2lcLFENb-72VmplHI6jTcAQLmfqPK61PCQW1TypVBzE7Obcoqt1D5jIjZx6cu3Uu2KWBNnE1g4yVK0Vh7UIWDjCS-Yc9KhtPNfNoqQCrrwL02_xLYxHHgMvnQyI-7FCDAY4ywZCI3DseQm4TIxocwEFrGZAEdUJPi1c8eU9Y0bU1bufMwccK2BOdrXWWtQcbhxCv8Nv9zGhzNZrPdG2uCrOMxfsFGIVuwoflWIzgrgjVOyunSc62GzQlIebSZ2-BfntBvclgW4r2Q8Hw8qhp0iuZSZKe0SIwp0kCTeghMgK_0FGFcXQ_JVV235kjFZvp_KrmyE2ZrH3xqyyR7MiUEvbMtP_ckwliN]--></g></svg>